<?xml version="1.0" encoding="UTF-8" standalone="no"?>
<svg
   id="emoji"
   viewBox="0 0 51.886734 51.951454"
   version="1.1"
   sodipodi:docname="2708.svg"
   width="51.886734"
   height="51.951454"
   inkscape:version="1.1.2 (0a00cf5339, 2022-02-04)"
   xmlns:inkscape="http://www.inkscape.org/namespaces/inkscape"
   xmlns:sodipodi="http://sodipodi.sourceforge.net/DTD/sodipodi-0.dtd"
   xmlns="http://www.w3.org/2000/svg"
   xmlns:svg="http://www.w3.org/2000/svg">
  <defs
     id="defs22" />
  <sodipodi:namedview
     id="namedview20"
     pagecolor="#505050"
     bordercolor="#eeeeee"
     borderopacity="1"
     inkscape:pageshadow="0"
     inkscape:pageopacity="0"
     inkscape:pagecheckerboard="0"
     showgrid="false"
     fit-margin-top="0"
     fit-margin-left="0"
     fit-margin-right="0"
     fit-margin-bottom="0"
     inkscape:zoom="3.7708333"
     inkscape:cx="55.292818"
     inkscape:cy="23.469613"
     inkscape:window-width="1366"
     inkscape:window-height="732"
     inkscape:window-x="0"
     inkscape:window-y="0"
     inkscape:window-maximized="1"
     inkscape:current-layer="emoji" />
  <g
     id="hair"
     transform="translate(-5.5643874,-14.280459)" />
  <g
     id="skin"
     transform="translate(-5.5643874,-14.280459)" />
  <g
     id="skin-shadow"
     transform="translate(-5.5643874,-14.280459)" />
  <g
     id="line"
     style="fill:none;stroke:#ffffff;stroke-opacity:1"
     transform="translate(-5.5643874,-14.280459)">
    <path
       fill="none"
       stroke="#000000"
       stroke-linecap="round"
       stroke-linejoin="round"
       stroke-width="2"
       d="m 48.3723,36.082 3.243,19.472 c 0.3715,2.2297 -0.3566,4.5016 -1.955,6.1 l -3.578,3.578 -6.534,-20.824"
       id="path12"
       style="fill:none;stroke:#ffffff;stroke-opacity:1" />
    <path
       fill="none"
       stroke="#000000"
       stroke-linecap="round"
       stroke-linejoin="round"
       stroke-width="2"
       d="m 27.2233,32.2 -20.659,-6.482 3.578,-3.578 c 1.5985,-1.5984 3.8703,-2.3265 6.1001,-1.955 l 19.472,3.243"
       id="path14"
       style="fill:none;stroke:#ffffff;stroke-opacity:1" />
    <path
       fill="none"
       stroke="#000000"
       stroke-linejoin="round"
       stroke-width="2"
       d="m 56.1423,18.469 -0.158,-0.585 c -0.2797,-1.0374 -1.0847,-1.8511 -2.119,-2.142 l -0.579,-0.159 c -1.8103,-0.6506 -3.8324,-0.2362 -5.241,1.074 l -28.853,28.808 -6.339,-0.842 -5.253,5.312 9.964,4.3 v 0 l 4.1171,10.206 5.371,-5.428 -0.747,-6.428 28.8,-28.795 c 1.2924,-1.4507 1.69,-3.4911 1.0369,-5.321 z"
       id="path16"
       style="fill:none;stroke:#ffffff;stroke-opacity:1" />
  </g>
</svg>
